<svg width="320" height="320" viewBox="0 0 320 320" fill="none" xmlns="http://www.w3.org/2000/svg">
<g id="bubblo2">
<circle id="body" cx="160" cy="160" r="160" fill="#FE99B8"/>
<g id="face">
<circle id="eye L" cx="129.456" cy="162.909" r="14.5455" fill="#222222"/>
<circle id="eye R" cx="274.909" cy="162.909" r="14.5455" fill="#222222"/>
<path id="mouth" fill-rule="evenodd" clip-rule="evenodd" d="M155.898 175.635C158.738 172.795 163.343 172.795 166.183 175.635C175.73 185.182 188.679 190.546 202.181 190.546C215.683 190.546 228.632 185.182 238.179 175.635C241.019 172.795 245.624 172.795 248.464 175.635C251.305 178.475 251.305 183.08 248.464 185.92C236.189 198.195 219.541 205.091 202.181 205.091C184.821 205.091 168.173 198.195 155.898 185.92C153.058 183.08 153.058 178.475 155.898 175.635Z" fill="#222222"/>
</g>
</g>
</svg>
