<svg width="100" height="100" fill="none" xmlns="http://www.w3.org/2000/svg"><mask id="a" style="mask-type:alpha" maskUnits="userSpaceOnUse" x="0" y="0" width="100" height="100"><circle cx="50" cy="50" r="50" fill="#000"/></mask><g mask="url(#a)"><path fill="#FE99B8" d="M0 0h100v100H0z"/><g style="mix-blend-mode:hard-light" filter="url(#b)"><circle cx="29" cy="24" r="19" fill="#fff" fill-opacity=".5"/></g><g style="mix-blend-mode:overlay" filter="url(#c)"><circle cx="64" cy="64" r="28" fill="#000" fill-opacity=".9" style="mix-blend-mode:color"/></g><g filter="url(#d)" fill="#222"><circle cx="40.454" cy="50.909" r="4.545"/><circle cx="85.909" cy="50.909" r="4.545"/><path fill-rule="evenodd" clip-rule="evenodd" d="M48.716 54.886a2.273 2.273 0 0 1 3.215 0 15.909 15.909 0 0 0 22.498 0 2.273 2.273 0 1 1 3.215 3.214 20.454 20.454 0 0 1-28.928 0 2.273 2.273 0 0 1 0-3.214Z"/></g></g><defs><filter id="b" x="-10" y="-15" width="78" height="78" filterUnits="userSpaceOnUse" color-interpolation-filters="sRGB"><feFlood flood-opacity="0" result="BackgroundImageFix"/><feBlend in="SourceGraphic" in2="BackgroundImageFix" result="shape"/><feGaussianBlur stdDeviation="10" result="effect1_foregroundBlur_536_274"/></filter><filter id="c" x="8" y="8" width="112" height="112" filterUnits="userSpaceOnUse" color-interpolation-filters="sRGB"><feFlood flood-opacity="0" result="BackgroundImageFix"/><feBlend in="SourceGraphic" in2="BackgroundImageFix" result="shape"/><feGaussianBlur stdDeviation="14" result="effect1_foregroundBlur_536_274"/></filter><filter id="d" x="34.908" y="45.364" width="58.547" height="21.727" filterUnits="userSpaceOnUse" color-interpolation-filters="sRGB"><feFlood flood-opacity="0" result="BackgroundImageFix"/><feColorMatrix in="SourceAlpha" values="0 0 0 0 0 0 0 0 0 0 0 0 0 0 0 0 0 0 127 0" result="hardAlpha"/><feOffset dx="1" dy="1"/><feGaussianBlur stdDeviation="1"/><feComposite in2="hardAlpha" operator="out"/><feColorMatrix values="0 0 0 0 1 0 0 0 0 1 0 0 0 0 1 0 0 0 0.12 0"/><feBlend mode="overlay" in2="BackgroundImageFix" result="effect1_dropShadow_536_274"/><feBlend in="SourceGraphic" in2="effect1_dropShadow_536_274" result="shape"/><feColorMatrix in="SourceAlpha" values="0 0 0 0 0 0 0 0 0 0 0 0 0 0 0 0 0 0 127 0" result="hardAlpha"/><feOffset dx="1" dy="2"/><feGaussianBlur stdDeviation=".5"/><feComposite in2="hardAlpha" operator="arithmetic" k2="-1" k3="1"/><feColorMatrix values="0 0 0 0 1 0 0 0 0 1 0 0 0 0 1 0 0 0 0.08 0"/><feBlend in2="shape" result="effect2_innerShadow_536_274"/></filter></defs></svg>